<?xml version="1.0" encoding="UTF-8" standalone="no"?>
<svg width="456" height="456" viewBox="0 0 456 456" version="1.1" xmlns="http://www.w3.org/2000/svg">
    <!-- Chat bubble (kept inside the adaptive-icon safe zone) -->
    <path d="M228 98c-72.9 0-132 52.8-132 118 0 26.3 9.6 50.6 25.9 70.2L108 352l67.6-21.4c16.1 6.1 33.9 9.4 52.4 9.4 72.9 0 132-52.8 132-118S300.9 98 228 98z" fill="#FFFFFF"/>
    <!-- Padlock: private, end-to-end encrypted -->
    <path d="M198 206v-18a30 30 0 0 1 60 0v18" fill="none" stroke="#1DAA61" stroke-width="16" stroke-linecap="round"/>
    <rect x="182" y="202" width="92" height="72" rx="14" fill="#1DAA61"/>
    <circle cx="228" cy="232" r="10" fill="#FFFFFF"/>
    <rect x="223" y="236" width="10" height="22" rx="5" fill="#FFFFFF"/>
</svg>
